<?xml version="1.0" encoding="utf-8"?>
<!-- Generator: Adobe Illustrator 16.0.0, SVG Export Plug-In . SVG Version: 6.00 Build 0)  -->
<!DOCTYPE svg PUBLIC "-//W3C//DTD SVG 1.1//EN" "http://www.w3.org/Graphics/SVG/1.1/DTD/svg11.dtd">
<svg version="1.1" id="Layer_1" xmlns="http://www.w3.org/2000/svg" xmlns:xlink="http://www.w3.org/1999/xlink" x="0px" y="0px"
	 width="880px" height="320px" viewBox="0 0 880 320" enable-background="new 0 0 880 320" xml:space="preserve">
<path fill="#FFFFFF" d="M302.597,208.602c-0.407-4.076-1.51-7.959-3.246-11.399c0.499-7.64-2.089-15.046-7.623-20.285
	c-0.545-8.075-4.326-15.397-12.013-19.9c-0.27-0.158-0.55-0.289-0.824-0.436c3.933-9.651,3.448-20.066-4.065-28.055
	c3.625-9.548,2.652-19.895-5.05-27.597c-6.217-6.217-15.61-8.558-23.953-6.549c-0.509-0.117-1.018-0.223-1.532-0.309
	c-2.049-5.626-6.059-10.613-11.073-13.55c-7.566-4.432-16.943-4.383-24.468-0.377c-1.715,0.092-3.298,0.362-4.794,0.781
	c-0.93-1.447-1.982-2.8-3.176-3.994c-9.679-9.679-25.168-9.42-35.022-0.304c-6.129-4.894-14.201-6.479-21.58-4.732
	c-1.161-2.495-2.779-4.846-4.896-6.963c-7.328-7.328-21.352-10.466-30.296-3.909c-4.298,3.151-8.394,6.468-12.352,9.912
	c-0.462-0.319-0.929-0.63-1.41-0.912c-6.828-4-14.539-4.266-21.397-1.626c-6.898-2.604-14.584-1.626-21.838,1.626
	c-0.848,0.38-1.682,0.786-2.509,1.201c-11.343-4.347-23.689,0.576-30.459,10.768c-5.639,8.49-8.951,17.366-9.413,27.617
	c-0.152,3.382,0.586,6.747,1.968,9.853c-0.908,1.949-1.78,3.933-2.575,6c-3.113,8.097,0.598,18.493,6.429,24.324
	c2.406,2.406,5.166,4.192,8.132,5.385c0.368,3.469,1.495,6.827,3.516,9.956c-2.77,3.723-5.465,7.502-8.058,11.359
	c-5.823,8.662-3.949,21.027,2.526,28.78c-1.742,9.54,4.559,20.306,12.442,24.925c10.145,5.942,21.821,3.592,30.296-3.91
	c0.175-0.154,0.343-0.316,0.518-0.473c2.998,1.112,6.234,1.737,9.45,1.797c0.792,1.123,1.685,2.188,2.674,3.176
	c9.2,9.2,26.31,10.201,35.355,0c5.39-6.076,10.881-12.063,16.449-17.979c3.1,1.014,6.351,1.4,9.562,1.176
	c0.509,0.615,1.046,1.219,1.63,1.804c4.667,4.667,11.074,7.322,17.678,7.322c5.577,0,9.884-1.795,14.051-4.62
	c0.599,0.438,1.209,0.844,1.83,1.207c5.505,3.225,12.609,4.166,19.008,2.639c6.029,3.621,13.602,4.683,20.334,2.806
	c1.695,6.413,5.925,12.198,11.654,15.555c5.774,3.382,12.812,4.295,19.264,2.521c4.825-1.328,8.178-3.773,11.187-6.986
	c5.995,5.306,15.61,8.361,23.312,5.486c8.441-3.152,16.862-7.365,21.118-15.911c2.498-5.015,3.633-8.779,3.71-14.479
	C303.08,210.739,301.045,193.061,302.597,208.602z"/>
<path fill="#FFFFFF" d="M548.678,169.678c9.756-9.756,9.462-25.561,0-35.355c-1.288-1.333-2.319-2.883-3.677-4.156
	c-6.195-5.811-13.472-8.85-22.001-9.166c-2.899-0.107-5.694,0.368-8.303,1.303c-5.195-11.151-18.177-18.706-30.798-13.975
	c-3.48-1.765-7.359-2.722-11.312-2.722c-1.88,0-3.604,0.207-5.226,0.583c-1.348-0.574-2.743-1.044-4.172-1.395
	c-9.721-6.025-21.88-3.946-30.779,3.635c-5.28,4.499-9.946,9.687-15.047,14.383c-0.459,0.423-0.93,0.834-1.399,1.245
	c-0.287,0.223-0.643,0.497-1.018,0.783c-11.103-0.539-22.076,8.123-24.963,18.619c-2.883,10.481,1.205,19.938,8.84,25.973
	c0.352,0.768,0.735,1.533,1.179,2.291c3.377,5.766,9.91,10.327,16.917,12.008c0.057,0.051,0.116,0.098,0.173,0.148
	c1.102,4.018,3.203,7.787,6.319,10.902c3.575,3.575,8.272,5.885,13.221,6.808c7.024,5.104,17.558,7.063,25.374,2.966
	c4.096,2.428,8.854,3.734,13.812,3.444c0.508,0.622,1.032,1.225,1.59,1.782c7.11,7.11,17.223,8.824,26.298,5.655
	c1.628,0.305,3.268,0.381,4.88,0.167c6.437-0.857,10.595-1.506,16.356-4.713c3.231-1.798,6.172-4.492,8.82-7.109
	c5.513-5.447,7.852-13.035,7.082-20.332c2.095-3.024,3.126-6.578,3.321-10.237C545.784,172.226,547.305,171.051,548.678,169.678z"/>
<path fill="#FFFFFF" d="M863.746,135.427c-1.124-1.124-2.297-2.093-3.507-2.931c-0.933-2.299-2.198-4.453-3.734-6.401
	c1.732-6,1.314-12.354-2.349-18.606c-2.598-4.435-6.574-7.858-11.14-9.978c-4.59-7.084-11.841-10.764-19.521-11.095
	c-0.551-0.692-1.124-1.364-1.746-1.986c-0.821-0.821-1.738-1.59-2.727-2.304c-0.269-0.555-0.552-1.104-0.864-1.636
	c-6.463-11.032-23.021-16.797-34.205-8.969c-3.604,2.522-7.207,5.049-10.808,7.583c-3.309-1.379-6.922-2.133-10.491-2.099
	c-7.695-5.099-18.46-5.939-26.495-1.354c-7.251-2.577-15.394-1.528-22.132,2.654c-3.138-1.131-6.501-1.626-9.92-1.305
	c-7.76-5.198-18.239-6.027-26.649-0.98c-7.499,4.5-14.998,9-22.498,13.5c-11.589,6.954-15.854,22.149-9.096,33.975
	c-1.163,6.339,0.535,12.932,4.156,18.21c-0.384,5.651,1.271,11.561,4.321,16.249c-0.812,2.847-1.166,5.755-1.048,8.621
	c-1.943,2.444-3.463,5.366-4.401,8.778c-3.364,12.233,4.039,28.328,17.461,30.754c27.303,4.932,54.294-0.012,80.728-7.312
	c12.391-3.423,24.678-7.452,37.074-11.021c4.999,3.895,11.253,5.643,17.418,5.158c5.231,3.649,12.059,5.402,18.421,4.51
	c4.334,3.531,9.396,6.148,14.93,8.27c12.74,4.882,27.403-5.287,30.753-17.461c1.645-5.981,1.035-11.54-1.174-16.334
	c2.064-3.881,3.921-7.928,5.673-12.165C873.466,151.791,869.459,141.14,863.746,135.427z"/>
<path fill="#FFFFFF" d="M472.643,291.278c-1.335-9.358-2.471-18.71-2.554-28.176c-0.136-15.55-23.273-16.101-24.902-1.634
	c-2.744,0.135-5.502,1.129-7.813,3.036c-4.211-5.352-12.379-6.203-18.063-1.431c-1.02-0.659-2.152-1.184-3.396-1.525
	c-2.87-0.789-5.469-0.521-7.781,0.479c-1.287-1.396-2.898-2.501-4.795-3.184c-1.808-2.255-4.47-3.793-7.352-4.458
	c-5.536-4.854-15.498-5.401-19.688,2.406c-0.39,0.728-0.812,1.43-1.247,2.125c-1.383,0.973-2.528,2.258-3.252,3.875
	c-0.556,1.241-1.343,2.443-1.552,3.791c-0.531,3.438,0.277,7.233,2.093,10.278c-0.026,0.448-0.048,0.897-0.083,1.346
	c-0.05,0.239-0.121,0.586-0.219,1.07c-1.423,6.657,1.882,13.493,8.73,15.377c2.698,0.742,5.2,0.571,7.404-0.267
	c2.944,0.874,6.17,0.761,8.978-0.553c2.236,0.992,4.71,1.315,7.111,0.918c4.882,6.165,15.217,6.213,20.621-1.344
	c-0.899,1.257-0.321,0.58,0.312-0.193c2.948,3.771,7.774,5.416,12.259,4.602c3.045,3.762,8.077,5.749,12.938,4.383
	c3.032,3.9,9.009,5.694,13.521,4.453C471.098,304.678,473.604,298.018,472.643,291.278z"/>
<path fill="#FFFFFF" d="M469.643,22.792c-1.725-4.175-4.129-7.465-8.73-8.731c-3.846-1.058-8.653-0.066-11.771,2.681
	c-3.121,0.011-6.15,1.198-8.383,3.875c-4.978-1.796-11.052-0.378-14.928,5.145c-2.477-0.442-5.132-0.069-7.506,0.927
	c-4.989-2.309-11.635-0.609-15.36,3.666c-1.208-0.217-2.474-0.244-3.74-0.088c-1.811-1.044-3.899-1.652-6.132-1.652
	c-6.69,0-11.177,4.868-12.285,10.951c-0.021,0.043-0.041,0.082-0.064,0.128c-0.507,0.856-0.989,1.726-1.444,2.611
	c-3.175,5.936-1.251,11.586,2.612,15.128c0.583,4.188,1.312,8.358,2.127,12.502c2.362,11.995,21.717,11.956,24.107,0
	c0.022-0.109,0.043-0.219,0.065-0.328c3.965-0.824,7.486-3.612,8.907-8.587c2.469-0.177,4.879-1.139,6.878-3.029
	c3.202,0.873,6.661-0.003,9.579-1.88c5.501,3.349,13.065,2.87,16.808-4.188c0.522-0.986,1.093-1.942,1.678-2.887
	c0.471,0.025,0.943,0.025,1.416,0.004c7.406,3.276,18.128-0.364,18.112-10.926C471.581,33.077,471.587,27.499,469.643,22.792z"/>
<path fill="#FFFFFF" d="M621.135,103.787c-0.964-2.747-2.434-4.929-4.258-6.66c0.083-0.672,0.155-1.345,0.204-2.017
	c0.501-6.869-4.601-11.043-10.378-11.934c-1.699-3.24-4.794-5.243-8.276-5.899c-0.002-0.002-0.004-0.004-0.006-0.006
	c-1.103-1.103-2.583-2.079-4.212-2.77c1.179-4.229-0.248-9.19-3.287-12.229c-2.345-2.345-5.227-3.468-8.152-3.562
	c-0.263-0.318-0.541-0.632-0.848-0.938c-3.777-3.777-10.532-5.075-15.147-1.955c-6.18,4.177-12.181,8.746-17.529,13.954
	c-9.425,9.177,0.578,22.6,10.854,21.171c0.633,1.506,1.526,2.888,2.645,4.006c2.33,2.33,5.226,3.463,8.165,3.565
	c1.858,1.785,4.157,3.028,6.623,3.33c1.81,1.934,4.237,3.294,6.976,3.783c1.741,3.252,4.898,5.243,8.433,5.852
	c1.919,2.342,4.776,3.967,7.791,4.72c3.005,2.848,7.188,4.197,11.673,2.963C618.631,117.451,623.392,110.221,621.135,103.787z"/>
<path fill="#FFFFFF" d="M602.839,250.161c-1.857-1.507-3.436-2.715-5.436-3.637c-2.07-3.575-5.554-6.024-10.403-6.024
	c-2.246,0-4.488,0.699-6.447,1.88c-5.005-6.47-17.235-8.993-21.346,0.312c-2.141,4.846-2.96,9.383-2.984,14.101
	c-1.758-0.103-3.521,0.161-5.167,0.815c-4.852-1.811-10.634-0.557-14.164,4.367c-1.356-0.888-2.858-1.521-4.413-1.882
	c-2.137-2.784-5.33-4.593-9.479-4.593c-6.242,0-13.256,5.713-12.5,12.5c1.055,9.477,1.951,19.095,4.446,28.323
	c2.353,8.702,12.718,11.146,19.201,6.965c3.7,0.722,7.663-0.216,10.691-3.449c2.231-2.383,4.072-4.929,5.662-7.593
	c2.935,0.095,5.9-0.797,8.287-2.668c1.321,1.817,2.762,3.574,4.373,5.261c5.933,6.208,19.517,3.985,20.893-5.516
	c0.149-1.035,0.254-2.055,0.334-3.067c3.763-0.557,7.369-2.646,9.405-5.947c1.827-2.961,3.229-6.155,4.223-9.475
	c1.709-0.553,3.349-1.521,4.823-2.995C607.28,263.397,608.138,254.459,602.839,250.161z"/>
<path fill="#009989" d="M290.796,138.542c-1.15-7.005-2.498-13.978-4.015-20.913c-0.7-3.197-1.466-6.378-2.268-9.55
	c-0.833-3.294-3.779-4.161-6.582-5.752c-13.531-7.685-28.14-14.705-37.504-27.645c-0.68-0.939-1.648-1.439-2.823-1.149
	c-70.538,17.438-143.336,13.45-215.325,13.41c-1.058,0-1.762,0.541-2.125,1.263c-0.211,0.341-0.354,0.747-0.375,1.237
	c-0.964,23.107,4.123,46.78,7.728,69.485c4.39,27.652,9.316,55.471,10.271,83.507c0.044,1.285,1.106,2.601,2.5,2.5
	c41.52-3.009,81.762-15.188,123.328-17.738c43.235-2.651,87.012-0.32,130.159,2.738c1.445,0.104,2.389-1.22,2.5-2.5
	C298.83,197.916,295.579,167.677,290.796,138.542z M268.857,102.992c3.046,1.698,6.099,3.383,9.122,5.121
	c1.606,0.923,2.25,2.604,2.652,4.414c-7.969,0.567-15.924,1.38-23.902,1.805c-4.305,0.229-9.534,0.695-13.45-1.503
	c-3.527-1.98-4.259-7.001-4.72-10.604c-0.965-7.547-0.822-15.274-0.796-22.884C246.047,89.714,257.33,96.566,268.857,102.992z
	 M291.465,224.777c-41.882-2.925-84.006-4.624-125.972-2.682c-41.443,1.919-81.543,14.299-122.829,17.649
	c-1.141-26.562-5.696-52.956-9.862-79.166c-3.566-22.437-8.621-45.758-8.086-68.631c69.555,0.119,139.793,3.525,208.05-12.148
	c-0.016,8.191-0.072,16.45,1.083,24.565c0.677,4.761,2.25,9.303,6.173,12.298c3.883,2.965,9.719,2.869,14.332,2.763
	c9.098-0.209,18.188-1.351,27.264-1.974c1.573,6.912,2.901,13.878,4.098,20.864C290.554,166.57,293.626,196.072,291.465,224.777z"/>
<path fill="#009989" d="M172.719,110.653c-3.621-0.492-6.805,0.831-9.487,3.224c-2.745,2.448-2.35,4.842-1.543,8.138
	c0.995,4.069,2.413,8.059,3.87,11.982c0.662,1.782,1.624,6.237,4.253,6.063c1.068-0.071,2.169-0.705,2.411-1.835
	c0.168-0.789,0.028-1.513-0.156-2.282c-0.163-0.68-0.522-1.139-0.97-1.426c-0.397-0.994-0.772-1.996-1.14-3
	c-0.115-0.313-0.217-0.63-0.329-0.944c6.248,0.656,13.924-0.17,14.27-7.699C184.167,116.978,178.241,111.402,172.719,110.653z
	 M167.86,125.3c-0.233-0.742-0.477-1.48-0.697-2.225c-0.337-1.141-0.639-2.292-0.906-3.452c-0.217-0.944,0.051-1.805-0.393-1.275
	c1.482-1.771,3.398-2.878,5.726-2.822c3.544,0.086,6.67,3.577,7.304,6.856C179.816,127.15,170.789,125.837,167.86,125.3z"/>
<path fill="#009989" d="M113.443,193.193c-3.33,0.756-7.658-2.15-10.427-3.623c-2.882-1.533-5.667-3.252-8.416-5.025
	c5.911-2.244,10.693-6.506,9.553-13.725c-0.955-6.042-7.432-11.354-13.524-10.838c-8.536,0.724-8.591,8.973-7.732,15.465
	c0.996,7.53,2.778,15.004,4.802,22.32c0.858,3.104,5.682,1.785,4.821-1.328c-0.798-2.887-1.505-5.797-2.18-8.715
	c4.125,2.684,8.314,5.264,12.708,7.49c3.523,1.787,7.703,3.713,11.725,2.799C117.916,197.3,116.583,192.479,113.443,193.193z
	 M87.871,166.766c3.325-4.095,8.537-0.554,10.58,2.914c3.962,6.727-4.202,10.136-9.584,11.325c-0.488-2.47-0.911-4.954-1.206-7.452
	C87.461,171.871,86.685,168.225,87.871,166.766z"/>
<path fill="#009989" d="M133.339,186.336c-3.71,3.057-8.226,3.264-11.066-0.671c2.972-0.758,6.171-2.062,7.271-5.091
	c1.634-4.496-2.043-8.988-4.669-12.237c-0.88-1.089-2.618-0.852-3.535,0c-5.729,5.317-7.735,13.817-2.983,20.476
	c4.734,6.631,12.796,5.774,18.518,1.059C139.365,187.818,135.807,184.303,133.339,186.336z M123.017,173.95
	c1.131,1.499,2.19,3.281,1.886,4.8c-0.263,1.312-2.638,1.895-4.284,2.217C120.524,178.486,121.491,176.018,123.017,173.95z"/>
<path fill="#009989" d="M161.105,191.104c-0.1,3.59-1.003,6.879-2.747,9.827c-2.03-6.156-3.194-12.553-3.775-19.013
	c0.608-3.638-0.017-7.721-0.567-10.979c-0.278-1.645-1.892-2.078-3.196-1.617c-0.406-0.154-0.865-0.218-1.379-0.129
	c-5.09,0.889-11.279,2.891-12.745,8.512c-1.011,3.879,1.402,7.914,4.46,10.12c2.644,1.907,6.356,2.737,9.227,1.062
	c0.937,6.126,2.458,12.15,4.812,17.881c0.665,1.621,2.774,2.629,4.178,1.104c4.334-4.706,6.554-10.379,6.732-16.768
	C166.195,187.877,161.195,187.887,161.105,191.104z M143.813,183.6c-5.822-4.658,0.61-7.991,5.34-9.228
	c0.05,1.972,0.14,3.946,0.28,5.921C149.019,183.904,147.607,186.635,143.813,183.6z"/>
<path fill="#009989" d="M178.873,165.338c-2.052-2.491-5.568,1.067-3.535,3.535c2.716,3.297,2.875,8.816-0.041,12.064
	c-1.148,1.277-2.031,1.449-3.329,0.625c-2.708-1.721-3.721-6.306-4.452-9.123c-0.809-3.119-5.632-1.795-4.821,1.33
	c1.164,4.485,2.837,9.301,6.75,12.109c2.792,2.005,6.204,1.21,8.706-0.762C184.13,180.404,183.246,170.646,178.873,165.338z"/>
<path fill="#009989" d="M202.842,179.945c-3.228,2.165-7.144,3.242-10.235,0.27c-0.708-0.681-1.205-1.463-1.538-2.307
	c1.149-0.418,2.712-0.328,3.828-0.502c1.921-0.299,3.53-1.293,4.974-2.534c0.816-0.7,0.965-2.145,0.391-3.029
	c-1.019-1.57-1.784-3.397-3.016-4.818c-1.424-1.644-3.479-2.612-5.381-3.578c-1.17-0.595-2.76-0.36-3.42,0.897
	c-3.008,5.731-4.584,13.545,0.165,18.889c4.524,5.088,11.448,4.591,16.755,1.03C208.027,182.477,205.528,178.143,202.842,179.945z
	 M193.559,170.375c0.433,0.582,0.802,1.221,1.161,1.867c-1.275,0.439-2.686,0.451-4.036,0.654c0.213-1.355,0.621-2.699,1.114-3.93
	C192.494,169.355,193.136,169.805,193.559,170.375z"/>
<path fill="#009989" d="M215.268,158.694c-5.644-1.426-8.148,2.678-10.323,7.149c-0.612,1.258-0.32,2.65,0.897,3.42
	c3.597,2.275,7.975,3.436,11.022,6.508c1.163,1.171,2.099,3.525,0.837,4.922c-1.587,1.756-3.487-1.85-3.94-2.852
	c-1.327-2.934-5.635-0.39-4.317,2.523c1.434,3.172,3.884,5.596,7.514,5.684c3.18,0.076,5.663-2.684,6.212-5.602
	c1.681-8.936-9.132-11.912-14.806-15.501c0.299,1.14,0.598,2.28,0.897,3.421c0.966-1.987,1.904-5.552,4.676-4.852
	C217.066,164.307,218.392,159.484,215.268,158.694L215.268,158.694z"/>
<path fill="#009989" d="M227.443,144.368c3.375,6.086,3.96,13.25,4.721,20.042c0.768,6.848,2.125,13.824,2.386,20.693
	c0.123,3.211,4.949,3.235,4.949,0c0-0.5,0-0.604,0-0.604c0-4-5-4-5,0v1c1,0,3.436,0,5.102,0c-0.302-8-1.882-16.061-2.781-23.928
	c-0.769-6.729-1.733-13.629-5.061-19.629C230.197,139.124,225.878,141.546,227.443,144.368L227.443,144.368z"/>
<path fill="#009989" d="M221.835,162.873c3.48,2.777,8.706,1.312,12.614,0.319c3.852-0.979,8.793-2.208,11.92-4.819
	c2.478-2.069-1.079-5.586-3.535-3.535c-1.739,1.452-5.593,2.324-7.958,3.042c-1.765,0.536-7.827,2.797-9.506,1.458
	C222.877,157.348,219.314,160.861,221.835,162.873L221.835,162.873z"/>
<path fill="#009989" d="M94.744,141.335c-0.862-4.224-1.833-8.426-2.708-12.647c-0.499-2.405-0.961-4.817-1.367-7.24
	c-0.14-0.832-0.25-1.665-0.339-2.503c-0.159-1.504,0.528-1.721-0.562-0.511c2.153-2.387-1.372-5.935-3.535-3.535
	c-2.269,2.516-0.392,7.964,0.132,10.812c0.118,0.642,0.251,1.28,0.377,1.92c-3.401,0.295-6.738,1.032-10.102,1.629
	c-1.109-3.633-1.823-7.285-1.229-10.929c0.514-3.153-4.304-4.505-4.821-1.329c-1.595,9.79,4.159,18.577,5.667,27.996
	c0.508,3.177,5.326,1.824,4.821-1.329c-0.508-3.176-1.669-6.397-2.826-9.643c3.159-0.577,6.293-1.27,9.501-1.471
	c0.724,3.37,1.481,6.733,2.171,10.11C90.567,145.823,95.387,144.482,94.744,141.335z"/>
<path fill="#009989" d="M101.5,119.5c0,0,7.118,0.199,10.617-0.104c1.832-0.159,3.75-0.972,5.612-0.859
	c1.582,0.095,2.776-0.426,3.935-1.436c2.436-2.121-1.064-5.643-3.483-3.535c-0.335,0.292-2.176,0.011-2.737,0.127
	c-1.806,0.373-3.967,0.744-5.805,0.947c-2.672,0.295-5.138-0.14-8.138-0.14S98.5,119.5,101.5,119.5
	C101.5,119.5,98.5,119.5,101.5,119.5z"/>
<path fill="#009989" d="M115.5,140c-0.282-3.104-0.603-6.241-1-9.333c-0.422-3.281-1.237-6.729-0.423-10.002
	c0.778-3.13-4.043-4.457-4.821-1.329c-1.626,6.537,0.649,14.125,1.244,20.665C110.79,143.184,115.792,143.212,115.5,140L115.5,140z"
	/>
<path fill="#009989" d="M148.669,111.256c-5.364,1.315-11.547,1.266-17.002,0.578c-3.193-0.403-3.154,4.602,0,5
	c2.171,0.274,4.439,0.434,6.728,0.459c1.562,7.007-1.38,14.275-0.139,21.372c0.555,3.172,5.373,1.823,4.821-1.329
	c-1.177-6.729,1.433-13.471,0.362-20.221c2.244-0.188,4.455-0.521,6.559-1.037C153.128,115.31,151.8,110.488,148.669,111.256z"/>
<path fill="#009989" d="M365,157c-2.993,0-9.585-8.555-12.232-11.518c-2.152-2.409-5.676,1.014-3.535,3.41
	c2.167,2.425,4.45,4.683,6.802,6.929c0.199,0.19,0.404,0.358,0.612,0.562c-14.343,0.125-28.861,1.839-42.982-0.778
	c-3.151-0.584-4.497,4.227-1.329,4.813c15.171,2.812,30.662,0.855,46.013,0.914c-3.811,4.321-7.946,10.201-6.759,15.335
	c0.726,3.141,5.547,1.808,4.821-1.331c-0.411-1.777,1.399-4.291,2.23-5.717c1.678-2.876,3.808-4.973,6.126-7.352
	c0.085-0.086,0.146,0.232,0.214,0.232c0.006,0,0.012,0,0.018,0C368.242,162.5,368.201,157.164,365,157z"/>
<path d="M428,135.5c-4.768,0.233-9.17,1.898-11.744,6.098c-2.336,3.813-2.749,8.374,0.25,11.795
	c3.077,3.511,8.623,4.281,12.102,7.499c3.99,3.692,0.571,8.082-4.109,8.144c-2.988,0.04-6.108-1.37-8.833-2.446
	c0.582,1.024,1.164,2.05,1.746,3.074c0.099-0.234,0.198-0.469,0.296-0.703c-0.582,0.582-1.164,1.164-1.746,1.746
	c0.346-0.068,0.693-0.139,1.039-0.207c3.213-0.123,3.226-5.124,0-5c-2.338,0.09-3.504,0.682-4.411,2.836
	c-0.569,1.352,0.613,2.627,1.746,3.074c4.65,1.84,9.418,3.371,14.409,2.07c4.234-1.104,7.645-6.15,6.594-10.504
	c-1.15-4.768-5.193-7.704-9.321-9.89c-2.144-1.135-6.498-2.042-6.734-4.989c-0.385-4.821,4.792-7.405,8.717-7.598
	C431.209,140.343,431.225,135.342,428,135.5L428,135.5z"/>
<path d="M439,167.5c2.593,0.047,5.524,0.492,7.893-0.873c2.631-1.517,4.227-4.109,3.597-7.167c-0.529-2.563-3.813-3.73-6.094-3.205
	c-2.869,0.662-5.062,2.257-6.614,4.747c-1.593,2.555-1.783,5.792-1.192,8.661c0.507,2.459,3.184,4.033,5.274,4.896
	c4.478,1.849,11.143,0.304,13.295-4.299c1.357-2.902-2.951-5.442-4.316-2.523c-0.998,2.133-3.267,2.556-5.441,2.495
	c-2.63-0.073-4.213-1.39-4.134-3.993c0.043-1.405,0.729-2.798,1.652-3.82c0.479-0.531,2.164-1.609,2.944-1.262
	c-0.231-0.104-1.165,1.012-1.464,1.139c-0.56,0.236-1.164,0.276-1.761,0.309c-1.208,0.065-2.431-0.084-3.639-0.105
	C435.773,162.442,435.779,167.442,439,167.5L439,167.5z"/>
<path d="M475.5,161.5c0,0,0-1.167,0-1.5c-1,0.59-2.345,1.179-3.768,1.768c2.839,2.705,8.357,4.968,9.606,8.896
	c0.664,2.088,3.518,2.454,4.694,0.598c2.717-4.281,5.192-10.147,5.404-15.262c0.134-3.225-4.836-3.212-4.969,0
	c-0.175,4.224-2.409,9.217-4.643,12.738c1.522,0.199,3.054,0.398,4.577,0.598c-1.66-5.219-7.423-7.563-11.14-11.104
	c-1.563-1.49-4.764-0.453-4.764,1.768c0,0.333,0,0.5,0,1.5C470.5,164.5,475.5,164.5,475.5,161.5
	C475.5,161.5,475.5,164.5,475.5,161.5z"/>
<path d="M498.335,165.41c5.976,1.482,9.664-3.834,7.388-9.208c-2.482-5.857-10.203-1.899-11.695,2.495
	c-1.59,4.682,2.246,9.722,5.889,12.159c4.879,3.265,10.577,1.454,13.242-3.594c1.505-2.849-2.811-5.375-4.316-2.523
	c-1.188,2.247-2.936,3.525-5.434,2.351c-2.209-1.04-3.987-3.131-4.592-5.495c-0.19-0.746-0.138-1.579,0.332-2.149
	c0.362-0.439,0.804-0.681,1.301-0.942c0.391-0.206,0.853-0.155,0.729-0.223c0.214,0.119,0.382,1.183,0.277,1.692
	c-0.194,0.941-0.914,0.835-1.791,0.618C496.534,159.813,495.207,164.635,498.335,165.41L498.335,165.41z"/>
<path d="M521.158,167.738c-1.439-2.37-1.822-5.221-1.719-7.952c0.123-3.235,4.549-5.138,7.299-3.628
	c2.827,1.553,5.35-2.765,2.523-4.317c-4.159-2.284-11.226-0.916-13.712,3.403c-2.428,4.217-1.099,11.083,1.292,15.018
	C518.512,173.013,522.837,170.502,521.158,167.738L521.158,167.738z"/>
<path d="M467.915,153.839c-4.142-1.254-9.196-1.623-10.479,3.569c-1.059,4.282,0.735,10.197,2.406,14.104
	c1.264,2.957,5.57,0.406,4.316-2.523c-0.966-2.261-1.324-4.749-1.716-7.152c-0.168-1.025-0.2-2.036-0.173-3.069
	c0.05-1.866,3.318-0.408,4.315-0.106C469.68,159.598,470.992,154.771,467.915,153.839L467.915,153.839z"/>
<path d="M545.768,139.232c-0.26-0.221-0.532-0.366-0.808-0.469c-14.636-23.168-44.755-32.682-70.638-35.168
	c-25.317-2.433-58.246,1.381-75.366,22.588c-7.998,9.908-9.968,22.384-7.784,34.698c3.089,17.414,13.891,31.871,28.708,41.18
	c16.305,10.244,36.362,13.783,55.347,13.886c19.179,0.104,38.691-3.751,56.104-11.85
	C555.601,192.809,568.447,158.543,545.768,139.232z M531.817,198.255c-16.775,9.797-38.73,12.788-57.812,12.685
	c-19.658-0.106-40.042-4.627-56.18-16.279c-13.93-10.059-22.803-27.029-22.584-44.27c0.366-28.825,32.516-39.921,56.417-41.957
	c28.061-2.389,61.609,3.97,82.262,24.472c3.106,3.083,5.742,6.564,7.921,10.356c0.543,0.946,1.397,1.273,2.228,1.197
	C560.91,161.098,550.662,187.249,531.817,198.255z"/>
<path fill="#009989" d="M622.257,155.117c-0.119-0.373-0.312-0.708-0.592-0.981c-4.855-5.497-12.251-8.396-16.513-14.397
	c-1.85-2.605-6.185-0.112-4.313,2.523c3.454,4.867,8.598,7.821,13.136,11.492c-14.098,0.978-28.431,4.232-42.311,0.835
	c-3.132-0.766-4.46,4.055-1.329,4.821c14.032,3.433,28.296,0.46,42.483-0.579c-2.987,4.021-6.791,7.607-8.229,12.504
	c-0.91,3.101,3.915,4.416,4.822,1.328c1.604-5.463,6.816-9.295,9.59-14.135c0.137-0.003,0.272-0.011,0.409-0.013
	c0.503,0.125,0.56,0.048,1.015-0.181c0.962-0.354,1.075-1.251,1.075-2.187v-0.003c0-0.106,0.459-0.212,0.454-0.319
	c-0.003-0.092,0.218-0.184,0.204-0.276c-0.008-0.048,0.094-0.094,0.084-0.142C622.222,155.311,622.29,155.214,622.257,155.117z"/>
<path fill="#009989" d="M864.13,149.037c-0.504-11.947-0.328-23.994-1.433-35.906c-0.637-6.856-2.678-12.717-7.393-17.823
	c-2.821-3.055-6.265-5.557-9.601-8.012c-4.503-3.314-8.787-6.868-13.22-10.27c-3.243-2.489-6.803-3.868-10.524-4.633
	c-0.747-1.172-2.075-1.158-3.074-0.498c-4.396-0.532-8.958-0.41-13.467-0.351c-15.759,0.207-31.492,1.41-47.219,2.349
	c-31.825,1.9-63.779,5.125-95.682,3.345c-2.673-0.149-5.341-0.368-8.007-0.607c-0.179-0.033-0.36-0.049-0.543-0.047
	c-0.322-0.029-0.646-0.054-0.969-0.084c-2.59-0.24-3.069,2.966-1.488,4.371c0.087,40.728,1.98,81.419,2.988,122.129
	c0.035,1.409,1.112,2.438,2.5,2.5c16.391,0.736,31.945-5.375,47.946-7.856c18.731-2.905,37.644-4.268,56.578-4.837
	c16.491-0.495,32.91-0.436,49.385-1.49c16.034-1.027,32.588-2.324,48.426,1.094c1.255,0.271,2.799-0.355,3.076-1.746
	C865.145,176.944,864.716,162.939,864.13,149.037z M835.692,85.974c4.1,3.327,8.521,6.218,12.577,9.6
	c2.241,1.869,4.04,3.819,5.455,5.939c-10.267,0.632-20.332-2.154-30.564-2.112c1.528-7.076,2.389-14.496,0.735-21.494
	c0.536,0.184,1.066,0.385,1.585,0.619C829.297,80.248,832.479,83.367,835.692,85.974z M858.007,187.061
	c-14.377-2.65-29.173-1.842-43.69-0.959c-16.975,1.033-33.856,1.241-50.852,1.652c-18.177,0.441-36.314,1.749-54.324,4.271
	c-16.507,2.312-32.945,8.627-49.707,8.52c-1.015-39.584-2.806-79.154-2.916-118.757c28.887,2.291,57.835-0.106,86.682-2.039
	c15.078-1.01,30.186-1.885,45.279-2.634c7.502-0.373,15.01-0.595,22.521-0.616c2.438-0.007,4.964-0.004,7.445,0.259
	c2.801,7.769,1.031,16.815-0.856,24.577c-0.361,1.489,0.735,3.278,2.411,3.165c11.418-0.771,22.582,2.771,34,2
	c0.841-0.057,1.456-0.448,1.857-0.985c0.939,2.294,1.539,4.804,1.84,7.616c1.209,11.309,0.863,22.824,1.357,34.177
	C859.631,160.537,860.266,173.958,858.007,187.061z"/>
<path fill="#009989" d="M757.335,96.589c-5.418,0.85-10.863,0.909-16.335,0.911c-1.642,0-2.442,1.296-2.413,2.568
	c-0.392-0.344-0.915-0.568-1.587-0.568c-5.129-0.001-10.275,0.035-15.335-0.911c-3.151-0.589-4.496,4.229-1.33,4.821
	c3.028,0.566,6.071,0.833,9.124,0.964c-0.141,5.651-0.615,11.516-1.87,16.96c-0.723,3.138,4.098,4.471,4.822,1.329
	c1.344-5.836,1.887-12.12,2.044-18.174c0.848,0.006,1.695,0.009,2.545,0.009c1.642,0,2.443-1.295,2.413-2.567
	c0.392,0.343,0.915,0.567,1.587,0.567c2.377-0.001,4.741-0.031,7.1-0.123c-0.862,5.315-1.691,10.636-2.511,15.958
	c-0.485,3.153,4.333,4.508,4.822,1.329c0.903-5.871,1.813-11.741,2.775-17.602c1.826-0.158,3.651-0.365,5.479-0.652
	C761.843,100.912,760.488,96.095,757.335,96.589z"/>
<path fill="#009989" d="M779.125,103.093c0.12-3.563-2.529-7.682-6.191-8.251c-4.58-0.711-7.417,3.796-7.848,7.784
	c-0.291,2.708-0.011,5.393,0.305,8.086c0.143,1.219,0.289,2.435,0.383,3.659c0.028,0.401,0.041,0.804,0.038,1.207
	c0.002,0.167-0.004,0.293-0.013,0.393c-1.88,1.33-1.51,4.881,1.201,4.529c3.785-0.491,4.185-4.26,3.844-8.146
	C775.355,111.011,778.957,108.092,779.125,103.093z M770.174,107.302c-0.126-0.894-0.219-1.693-0.229-2.339
	c-0.023-1.468,1.039-7.41,3.336-4.343C775.594,103.71,773,106.205,770.174,107.302z"/>
<path fill="#009989" d="M717.262,164.842c-5.716-3.201-12.418-4.558-17.492-8.717c5.714-4.983,16.889-16.519,7.431-18.114
	c-6.318-1.065-13.258,2.736-15.359,8.771c-2.483,7.133-1.177,14.909-0.341,22.219c0.362,3.165,5.366,3.2,5,0
	c-0.309-2.695-0.941-6.38-1.176-10.122c5.489,5.188,12.919,6.644,19.414,10.28C717.555,170.736,720.074,166.416,717.262,164.842z
	 M702.665,143.411c0.914-0.195,1.796-0.384,2.715-0.474c-0.881,1.637-2.232,3.03-3.487,4.379c-1.982,2.132-4.17,4.296-6.532,6.05
	C695.822,148.556,697.663,144.478,702.665,143.411z"/>
<path fill="#009989" d="M726,160.5c4.592,0.295,11.539-1.971,10.286-7.915c-1.226-5.811-8.105-4.317-11.548-1.744
	c-2.388,1.785-4.467,3.646-4.706,6.827c-0.208,2.778,1.106,5.257,2.897,7.284c3.68,4.163,10.494,5.847,14.838,1.815
	c2.368-2.197-1.176-5.725-3.535-3.535c-3.749,3.479-12.239-3.435-7.828-7.489c1.001-0.919,2.729-2.159,4.137-2.312
	c0.39-0.042,0.797,0.086,0.717,0.046c0.258,0.128,0.042-0.181,0.156,0.198c-0.05-0.166-0.04,0.276-0.081,0.417
	c0.013-0.044-0.278,0.413-0.55,0.606c-1.36,0.97-3.202,0.902-4.783,0.8C722.779,155.293,722.799,160.294,726,160.5L726,160.5z"/>
<path fill="#009989" d="M749,147.5c-3.649,0.392-6.108,2.851-6.5,6.5c-0.117,1.094,0.851,2.133,1.835,2.411
	c1.103,0.311,3.549,1.191,3.254,2.8c-0.294,1.612-3.039,0.682-3.924,0.379c0.582,1.025,1.164,2.05,1.746,3.075
	c-0.471,0.279-0.94,0.558-1.411,0.836c3.193-0.246,3.218-5.248,0-5c-1.721,0.132-3.042,1.104-3.411,2.836
	c-0.297,1.396,0.399,2.613,1.746,3.074c3.919,1.344,8.771,0.635,10.076-3.871c1.294-4.473-2.966-7.885-6.746-8.95
	c0.611,0.804,1.224,1.607,1.835,2.411c0.078-0.725,0.775-1.422,1.5-1.5C752.171,152.159,752.204,147.156,749,147.5L749,147.5z"/>
<path fill="#009989" d="M763.411,155.665c0.178-0.515,1.207-1.321,1.725-1.099c-1.295-0.557-0.03-1.576-1.294,0.172
	c-0.482,0.666-1.052,0.976-1.684,0c-1.067-1.65-4.174-1.685-4.569,0.597c-0.889,5.141-0.192,10.684-2.747,15.403
	c-1.536,2.836,2.781,5.359,4.316,2.523c2.865-5.29,2.263-10.87,3.253-16.597c-1.523,0.199-3.047,0.398-4.569,0.597
	c1.6,2.472,4.191,3.43,7.045,2.927c2.58-0.455,4.911-4.473,4.686-6.923c-0.233-2.544-2.586-3.745-4.925-3.625
	c-2.858,0.146-5.146,2.059-6.059,4.695C757.531,157.391,762.362,158.692,763.411,155.665L763.411,155.665z"/>
<path fill="#009989" d="M775.738,149.841c-3.188,1.719-4.619,4.991-3.004,8.336c1.429,2.958,5.237,4.066,8.206,3.192
	c7.198-2.118,5.28-13.55-1.94-13.87c-3.225-0.143-3.211,4.857,0,5c0.947,0.042,1.284,1.068,1.484,2.041
	c0.098,0.472,0.013,0.939-0.116,1.417c-0.169,0.626,0.113-0.13-0.205,0.388c0.391-0.634-0.21,0.075-0.552,0.203
	c-0.993,0.374-1.992-0.023-2.417-0.649c-0.25-0.368-0.265-0.358-0.168-0.746c0.085-0.34,0.805-0.763,1.235-0.995
	C781.101,152.628,778.576,148.312,775.738,149.841L775.738,149.841z"/>
<path fill="#009989" d="M792,151.5C792,151.5,792,154.5,792,151.5c0,0-4.5-4-4.5,0c0,1,0.062,3.061-0.658,4.699
	c1.522,0.642,3.046,1.054,4.569,1.696c0.337-0.997,1.988-6.191,3.748-5.442c0.716,0.305,0.7,2.06,0.769,2.702
	c0.146,1.379,0.403,2.606,0.766,3.914c0.289,1.046,1.304,1.856,2.41,1.821c1.858-0.061,2.996-1.473,3.308-3.219
	c0.561-3.152-4.257-4.504-4.822-1.333c-0.001,0.088-0.003,0.175-0.005,0.263c0.59-0.244,1.179-0.489,1.768-0.733
	c-0.082,0.002-0.165,0.005-0.248,0.007c0.804,0.612,1.607,1.224,2.411,1.835c-1.016-3.671-0.507-9.308-5.383-10.222
	c-5.397-1.011-8.123,4.659-9.543,8.846c-0.902,2.662,3.426,4.987,4.569,2.387c1.111-2.523,1.342-5.223,1.342-7.223c0-4-5.5-4-5.5,0
	c0,0,0-1,0,0C787,154.5,792,154.5,792,151.5C792,151.5,792,154.5,792,151.5z"/>
<path fill="#009989" d="M810.5,148c0.133,1.72,1.104,3.042,2.835,3.411c2.627,0.56,4.64-3.355,1.927-4.569
	c-3.834-1.716-10.663-1.738-11.845,3.426c-0.522,2.281,0.9,4.945,2.619,6.381c0.992,0.828,2.155,1.355,3.319,1.892
	c0.501,0.231,0.997,0.467,1.489,0.715c0.292,0.15,0.574,0.315,0.848,0.496c0.212,0.212,0.178,0.183-0.104-0.086
	c0.085-0.642,0.169-1.284,0.253-1.926c-0.544,1.23-2.539,0.97-3.177,0.851c-3.151-0.589-4.496,4.229-1.33,4.821
	c2.035,0.381,4.341,0.426,6.235-0.516c2.711-1.346,3.692-4.113,1.792-6.543c-0.689-0.881-1.992-1.426-2.97-1.892
	c-0.867-0.413-2.691-0.878-3.234-1.722c-0.513-0.798-1.388-1.318-0.323-1.729c1.201-0.465,2.735-0.373,3.903,0.15
	c0.642-1.523,1.284-3.046,1.927-4.569c0.278,0.47,0.557,0.94,0.835,1.411C815.254,144.807,810.253,144.783,810.5,148L810.5,148z"/>
<path fill="#009989" d="M822.589,154.665c0.163,0.617,1,2,1,2c0.338,1.283,1.786,2.149,3.076,1.746
	c3.849-1.204,7.286-5.168,5.567-9.375c-1.941-4.749-7.851-4.612-10.62-0.759c-3.286,4.573-2.741,9.562,1.142,13.531
	c1.941,1.984,3.983,3.01,6.777,2.941c2.506-0.062,4.776-1.666,7.134-2.34c3.095-0.883,1.777-5.708-1.33-4.821
	c-1.987,0.567-3.788,1.624-5.777,2.148c-2.196,0.58-4.509-2.45-5.118-4.218c-0.368-1.069,1.141-6.413,2.909-4.983
	c1.398,1.131-1.153,2.784-2.014,3.053c1.025,0.582,2.051,1.164,3.076,1.746c-0.163-0.617-1-2-1-2
	C826.591,150.22,821.768,151.543,822.589,154.665L822.589,154.665z"/>
<path fill="#FFF800" d="M399.595,108.826c3.115-1.479,1.763-6.608,1.338-9.146c-0.415-2.48-0.946-4.94-1.384-7.417
	c-0.203-1.146-1.019-3.904-0.391-5c-0.941,0.383-1.882,0.766-2.823,1.149c2.857,1.044,4.558,3.769,6.173,6.178
	c1.757,2.621,4.19,5.161,5.414,8.076c0.804-1.055,1.607-2.11,2.411-3.165c-2.703-0.22-5.209-1.579-7.696-2.555
	c-3.274-1.285-6.519-2.183-9.709-3.771c0.169,1.309,0.337,2.618,0.506,3.926c1.992-1.657,4.995-2.085,7.375-2.975
	c2.75-1.028,4.578-3.883,7.522-4.382c-0.941-0.383-1.882-0.766-2.823-1.149c0.772,1.757-1.84,5.59-2.592,7.077
	c-1.136,2.246-2.434,4.522-2.993,6.997c1.637,0.222,3.274,0.443,4.911,0.665c0.108-0.246,0.217-0.492,0.325-0.738
	c1.627-2.791-2.694-5.307-4.317-2.523c-0.705,1.208-0.893,1.882-1.008,3.262c-0.235,2.827,4.295,3.39,4.911,0.665
	c1.307-5.787,7.822-11.69,5.081-17.926c-0.475-1.081-1.807-1.321-2.823-1.149c-3.394,0.576-5.374,3.579-8.469,4.736
	c-3.056,1.142-6.074,1.776-8.634,3.907c-1.198,0.997-0.858,3.247,0.506,3.926c3.168,1.577,6.292,2.996,9.731,3.875
	c3.533,0.903,6.48,2.83,10.198,3.133c1.492,0.122,3.019-1.717,2.411-3.165c-1.562-3.722-4.293-6.846-6.534-10.188
	c-2.228-3.322-4.717-6.159-8.546-7.558c-1.035-0.378-2.301,0.237-2.823,1.149c-1.592,2.778-0.487,6.735,0.031,9.666
	c0.39,2.206,0.85,4.398,1.24,6.604c0.166,0.939,0.297,1.877,0.381,2.828c0.123,1.389-0.393,1.133,0.578,0.672
	C394.16,105.892,396.699,110.202,399.595,108.826L399.595,108.826z"/>
<path fill="#FFF800" d="M512.256,95.999c0.274,1.096,0.863,1.616,1.815,2.161c0.995,0.569,2.208,0.392,3.029-0.391
	c4.081-3.888,3.181-10.007,6.667-14c-1.309-0.168-2.617-0.337-3.926-0.506c2.221,4.849,6.063,9.207,6.325,14.738
	c1.423-0.589,2.845-1.179,4.268-1.768c-2.599-2.015-5.002-4.729-7.84-6.391c-2.876-1.685-5.911-2.686-8.666-4.667
	c-0.421,1.553-0.841,3.106-1.262,4.659c6.212-0.729,12.391-1.882,18.666-1.333c-0.421-1.553-0.841-3.106-1.262-4.659
	c-4.772,2.729-9.499,5.503-14,8.667c-2.616,1.838-0.122,6.176,2.523,4.317c4.501-3.163,9.228-5.938,14-8.667
	c2.303-1.317,1.096-4.453-1.262-4.659c-6.275-0.549-12.454,0.604-18.666,1.333c-2.505,0.294-3.368,3.144-1.262,4.659
	c2.344,1.686,4.803,3.011,7.446,4.166c3.036,1.327,5.446,4.095,8.048,6.11c1.564,1.213,4.382,0.654,4.268-1.768
	c-0.312-6.606-4.358-11.479-7.009-17.262c-0.65-1.42-2.931-1.646-3.926-0.506c-3.527,4.04-2.845,10.357-6.667,14
	c1.01-0.13,2.02-0.261,3.029-0.391c0.161,0.276,0.322,0.551,0.483,0.827C516.297,91.542,511.476,92.869,512.256,95.999
	L512.256,95.999z"/>
<path fill="#FFF800" d="M535.232,227.769c0.223,0.222,0.111,0.444,0.334,0.667c1.543,1.541,3.934,0.413,3.934-1.768
	c0-4.667,0-9.334,0-14c-1,0.719-2.174,1.438-3.428,2.158c3.707,1.568,10.63,4.926,11.683,9.172c0.804-1.055,1.691-2.109,2.495-3.164
	c-2.727-0.08-5.316-0.604-7.96-1.244c-2.358-0.57-4.793,0.382-6.876-1.356c-0.169,1.309-0.327,2.618-0.496,3.927
	c3.367-2.281,7.414-2.951,10.512-5.725c-0.589,0.244-1.177,0.488-1.766,0.732c1.84-0.238,3.084-0.768,4.436-2.066
	c-1.393-0.367-2.785-0.735-4.178-1.104c0.24,1.625-1.625,4.328-2.355,5.674c-1.141,2.101-2.469,4.355-4.334,5.895
	c-2.489,2.055,1.069,5.57,3.535,3.535c2.377-1.962,4.048-4.938,5.496-7.605c1.441-2.657,2.936-5.739,2.48-8.826
	c-0.289-1.955-2.958-2.275-4.179-1.104c-0.751,0.721-1.309,0.443-2.16,0.942c-1.021,0.599-1.846,1.423-2.913,1.991
	c-2.325,1.234-4.887,1.854-7.087,3.342c-1.228,0.832-1.819,2.83-0.506,3.927c2.352,1.964,4.896,2.547,7.913,2.71
	c3.539,0.192,6.95,1.252,10.521,1.355c1.663,0.049,2.792-1.629,2.411-3.164c-1.415-5.703-9.127-10.037-14.148-12.161
	c-1.68-0.71-4.096,0.079-4.096,2.159c0,4.666,0,9.333,0,14c2-0.59,3.178-1.18,4.602-1.768c-0.223-0.223-0.278-0.445-0.501-0.667
	C536.318,221.952,532.949,225.488,535.232,227.769L535.232,227.769z"/>
<path fill="#FFF800" d="M473.5,252.5c0,0,0,0.279,0,0.501c0,2.929,4.503,3.264,5.411,0.665c1.812-5.191,2.341-10.676,3.583-16
	c-1.394,0.367-2.661,0.734-4.054,1.103c3.899,3.38,6.564,9.218,7.419,14.229c0.804-1.055,1.639-2.109,2.442-3.164
	c-4.289,0.432-9.263-3.111-12.217-5.934c-0.367,1.393-0.728,2.785-1.095,4.178c4.525-1.703,9.396-0.701,14.004-2
	c-1.025-1.025-2.049-2.051-3.074-3.075c-0.937,3.331-4.891,5.867-7.516,7.839c-2.543,1.912-0.056,6.257,2.524,4.318
	c3.772-2.836,8.47-6.045,9.815-10.828c0.514-1.83-1.245-3.592-3.076-3.075c-4.601,1.297-9.434,0.282-14,2
	c-1.682,0.633-2.565,2.78-1.103,4.179c3.852,3.682,10.174,7.963,15.768,7.398c1.722-0.174,2.702-1.455,2.411-3.164
	c-0.985-5.774-4.164-12.555-8.644-16.437c-1.347-1.167-3.724-0.847-4.179,1.103c-1.241,5.325-2.02,10.81-3.833,16
	c1.638,0.223,3.411,0.443,4.411,0.665c0-0.222,0,0.499,0-0.501C478.5,249.5,473.5,249.5,473.5,252.5
	C473.5,252.5,473.5,249.5,473.5,252.5z"/>
<path fill="#FFF800" d="M383.256,217.332c0.028,0.194,0.056,0.389,0.083,0.583c0.107,0.755,0.992,1.639,1.746,1.746
	c0.194,0.028,0.389,0.056,0.583,0.083c1.312,0.188,2.728-0.299,3.075-1.746c1.237-5.145,2.021-10.398,4-15.332
	c-1.523,0.199-3.046,0.397-4.569,0.597c3.191,4.271,4.969,9.499,5.748,14.735c1.025-1.024,2.05-2.05,3.075-3.074
	c-2.464-0.879-4.132-3.097-6.667-4c-3.379-1.205-6.905-2.019-10.069-3.748c-0.199,1.522-0.398,3.046-0.597,4.568
	c2.809-0.439,5.699-0.19,8.53-0.315c2.993-0.132,6.554-1.559,9.474-1.017c-0.498-1.225-0.996-2.449-1.494-3.673
	c-0.926,1.208-2.474,2.132-3.704,2.986c-0.91,0.632-1.863,1.196-2.827,1.741c-0.665,0.375-2.195,0.559-1.382,1.042
	c-2.779-1.65-5.292,2.673-2.523,4.317c4.324,2.568,12.333-4.402,14.754-7.563c0.944-1.232-0.024-3.399-1.494-3.673
	c-3.043-0.564-6.306,0.193-9.329,0.667c-3.75,0.588-7.569,0.076-11.333,0.667c-2.188,0.342-2.366,3.602-0.597,4.568
	c3.21,1.756,6.677,2.683,10.13,3.83c2.938,0.977,4.883,3.383,7.801,4.422c1.995,0.711,3.328-1.375,3.075-3.074
	c-0.831-5.587-2.847-11.375-6.252-15.931c-1.354-1.812-3.728-1.501-4.569,0.597c-1.979,4.934-2.763,10.188-4,15.334
	c1.025-0.582,2.05-1.164,3.075-1.746c-0.194-0.028-0.389-0.057-0.583-0.084c0.582,0.582,1.164,1.164,1.746,1.746
	c-0.028-0.194-0.056-0.389-0.083-0.583C387.623,212.821,382.805,214.18,383.256,217.332L383.256,217.332z"/>
<path fill="#009989" d="M713.158,120.738c-1.75-2.985-2.058-7.248-2.707-10.587c-0.54-2.78-0.607-7.006-2.293-9.413
	c-1.834-2.62-6.171-0.125-4.316,2.523c1.122,1.604,1.398,5.096,1.735,7.653c-1.883,0.867-5.186,1.828-6.669-0.177
	c-0.049-0.066,0.592-0.115-0.408-0.175V103.5c0-4-5-4-5,0v19c0,3,5,3,5,0v-6.155c3,0.763,5.179,0.456,7.704-0.445
	c0.49,2.575,1.24,5.192,2.513,7.362C710.346,126.041,714.793,123.525,713.158,120.738z"/>
<path fill="#BBBBBB" d="M440.821,94.876c0.5,0.5,1,1,1.5,1.5c0.875,0.875,2.694,1.076,3.535,0
	c3.773-4.826,0.876-13.014-1.831-17.695c-1.488-2.573-3.768-4.459-6.776-4.666c-3.064-0.21-5.701,2.501-5.604,5.427
	c0.102,3.032,3.541,5.488,6.372,5.548c4.133,0.087,7.056-2.006,8.542-5.768c2.729-6.906-5.404-15.074-9.702-19.38
	c-2.279-2.285-5.814,1.251-3.535,3.535c2.091,2.096,4.08,4.259,5.803,6.674c0.956,1.34,1.753,2.794,2.336,4.333
	c0.994,2.62-0.329,6.945-4.041,5.358c-0.397-0.754-0.245-0.94,0.456-0.559c0.462,0.304,0.864,0.673,1.206,1.107
	c1.171,1.269,1.831,3.517,2.384,5.106c0.564,1.62,2.096,6.103,0.856,8.103c1.179,0,2.356,0,3.535,0c-0.5-1-1-1.329-1.5-1.829
	C442.075,89.389,438.539,92.595,440.821,94.876L440.821,94.876z"/>
<path fill="#BBBBBB" d="M553.083,123.107c0.272-3.991,3.482-8.104,7.165-9.588c-0.812-0.214-1.622-0.429-2.433-0.643
	c0.369,0.49,0.739,0.98,1.108,1.47c0.72-0.413,1.439-0.826,2.159-1.238c-1.214-0.082,0.967-4.007,1.449-4.77
	c1.416-2.236,4.07-4.729,6.885-3.819c3.077,0.995,4.385-3.834,1.33-4.821c-10.626-3.435-21.416,17.615-9.664,18.41
	c0.84,0.057,1.765-0.51,2.159-1.238c1.674-3.091,0.406-5.132-1.892-7.529c-0.56-0.584-1.644-0.961-2.433-0.643
	c-5.883,2.372-10.396,7.993-10.835,14.41C547.863,126.328,552.864,126.306,553.083,123.107L553.083,123.107z"/>
<path fill="#BBBBBB" d="M421.322,220.335c-4.731,4.731-2.458,11.451,2.289,15.458c4.83,4.078,11.414,0.041,9.301-6.24
	c-2.029-6.032-11.224-1.727-13.481,1.787c-4.554,7.09-3.862,16.896,3.897,21.42c2.791,1.627,5.307-2.695,2.523-4.317
	c-6.317-3.683-5.758-14.731,1.627-16.728c1.356-0.365,0.889,1.184-0.174,0.612c-1.192-0.641-2.042-1.933-2.733-3.04
	c-1.404-2.248-1.335-3.796,0.286-5.417C427.14,221.588,423.604,218.053,421.322,220.335L421.322,220.335z"/>
<path fill="#BBBBBB" d="M404.268,48.178c-0.323,0.143-0.611,0.383-0.892,0.592c-2.073,1.541-4.154,3.203-5.997,5.021
	c-1.24-2.942-2.419-5.908-3.273-8.995c3.7-0.366,7.291-6.284,8.644-8.922c1.468-2.863-2.846-5.394-4.317-2.523
	c-0.74,1.443-1.641,2.827-2.651,4.095c-0.575,0.721-1.201,1.401-1.878,2.027c-0.138,0.128-0.197,0.179-0.286,0.239
	c-0.793-0.194-1.631-0.03-2.293,0.633c-0.621,0.621-0.874,1.659-0.628,2.529c-1.077,0.415-1.901,1.463-1.515,2.903
	c1.81,6.758,5.205,12.917,7.5,19.499c1.054,3.024,5.886,1.724,4.821-1.329c-0.689-1.979-1.481-3.917-2.296-5.848
	c0.561-0.004,1.138-0.209,1.653-0.719c0.813-0.805,1.694-1.548,2.577-2.282c0.643,0.074,1.326-0.118,1.923-0.717
	c1.051-1.054,2.772-2.397,2.772-4.033C408.13,48.211,405.965,47.424,404.268,48.178z"/>
<path fill="#BBBBBB" d="M414.5,40.5h-1c-3,0-3,5,0,5h1C417.5,45.5,417.5,40.5,414.5,40.5z"/>
<path fill="#BBBBBB" d="M422.501,50.447c-0.229-0.572-0.594-1.056-1.051-1.387c-0.023-0.063-0.05-0.125-0.073-0.188
	c-0.097-0.268-0.188-0.539-0.265-0.813c-0.021-0.077-0.039-0.154-0.057-0.231c-0.164-1.231-1.178-2.216-2.466-2.216
	c-1.339,0-2.531,1.137-2.5,2.5c0.023,1.029,0.42,2.016,0.8,2.955c0.472,1.169,0.977,2.332,1.555,3.453
	c0.129,0.252,0.258,0.518,0.431,0.743c0.392,0.508,0.866,1.114,1.564,1.208c1.422,0.191,2.614-0.325,3.09-1.765
	C423.963,53.395,422.965,51.61,422.501,50.447z"/>
<path fill="#BBBBBB" d="M429.547,40.873c-2.294-3.754-4.633-7.829-7.689-11.028c-2.231-2.335-5.762,1.205-3.535,3.535
	c2.297,2.404,4.031,5.442,5.8,8.236c1.036,1.637,2.038,3.294,3.011,4.969c0.221,0.38,0.612,1.165,0.892,1.708
	c0.018,0.545,0.248,1.101,0.798,1.586c0.423,0.374,0.731,0.533,1.251,0.748c1.007,0.416,2.327-0.263,2.823-1.149
	C434.285,47,430.733,42.815,429.547,40.873z"/>
<path fill="#BBBBBB" d="M449.423,39.701c-1.416,0.586-5.015,2.244-6.791,1.19c1.181-1.099,2.658-1.857,3.657-3.147
	c1.952-2.52,1.264-5.087,0.211-7.853c-0.402-1.054-1.218-1.392-2.411-1.392h-3c-1.22,0-1.975,0.345-2.411,1.392
	c-1.688,4.045-3.464,9.437-0.774,13.47c2.896,4.345,8.815,2.941,12.85,1.272C453.688,43.419,452.403,38.469,449.423,39.701z
	 M441.873,35.1c0.186-0.655,0.407-1.299,0.639-1.909C442.621,33.883,442.492,34.532,441.873,35.1z"/>
<path fill="#BBBBBB" d="M464.85,29.454c-2.131-1.06-4.219-2.04-6.432-2.668c0.683-2.002,0.748-4.182,0.081-6.337
	c-0.951-3.07-5.778-1.759-4.822,1.329c0.543,1.75,0.369,3.64-0.856,5.067c-1.444,1.681-0.482,4.133,1.768,4.268
	c2.344,0.141,4.434,1.039,6.501,2.048c-0.03,0.922-0.156,1.915-0.6,2.055c-0.812,0.257-2.057-0.084-2.901-0.104
	c-3.227-0.075-3.219,4.926,0,5c1.977,0.046,3.724,0.295,5.562-0.625c2.714-1.36,2.882-5.306,2.938-7.874
	C466.106,30.783,465.61,29.832,464.85,29.454z"/>
<path fill="#BBBBBB" d="M391.5,261.5c0,0,1.59,0,2.09,0c2.401,0,3.529-3.7,1.262-4.858c-4.729-2.417-11.448-3.552-14.95,1.542
	c-3.698,5.379-1.06,11.387,2.921,15.733c0.811-1.393,1.622-2.811,2.432-4.203c-5.011-0.953-11.728,0.306-9.533,6.972
	c1.963,5.963,8.974,9.653,14.868,9.92c3.225,0.146,3.21-4.858,0-5.004c-3.377-0.152-6.194-1.727-8.533-4.098
	c-0.772-0.783-1.375-1.737-1.718-2.78c-0.38-1.156,3.122-0.302,3.587-0.214c2.443,0.465,4.188-2.26,2.432-4.178
	c-2.211-2.415-4.305-5.629-2.676-8.943c1.646-3.352,6.226-1.667,8.646-0.43c0.42-1.553,0.841-2.459,1.262-4.459
	c-0.5,0-1.09,0-2.09,0C388.5,256.5,388.5,261.5,391.5,261.5C391.5,261.5,388.5,261.5,391.5,261.5z"/>
<path fill="#BBBBBB" d="M398.749,285.361c2.593-4.164,3.526-8.561,8.103-11.104c-1.14-0.299-2.28-0.598-3.42-0.896
	c0.97,2.133,1.147,3.949,1.159,6.238c0.017,3.303,4.637,3.119,5,0c0.187-1.61,1.806-3.133,3.227-3.707
	c1.274-0.514,1.327,3.633,1.366,4.17c0.156,2.174-0.055,4.918,1.248,6.799c1.822,2.631,6.158,0.135,4.317-2.523
	c-1.098-1.587-0.587-5.111-0.834-7.007c-0.315-2.415-1.019-4.007-3.062-5.439c-4.968-3.484-10.771,3.608-11.262,8.608
	c1.667,0,3.333,0,5,0c-0.016-4-0.502-6.27-1.841-9.212c-0.573-1.26-2.324-1.731-3.42-1.122c-5.493,3.053-6.772,7.767-9.896,12.784
	C392.722,285.695,397.049,288.091,398.749,285.361L398.749,285.361z"/>
<path fill="#BBBBBB" d="M437.088,274.1c-2.282-0.039-4.507-0.408-6.774-0.014c-2.479,0.432-3.826,2.715-4.636,4.849
	c-1.367,3.604-1.156,7.371,2.149,9.768c2.442,1.771,6.188,1.263,8.522-0.39c3.557-2.518,4.046-6.904,3.149-10.878
	c-0.626-2.772-4.97-2.137-4.911,0.665c0.107,5.135,1.676,9.983,5.232,13.767c2.212,2.354,5.741-1.188,3.535-3.535
	c-2.642-2.811-3.688-6.438-3.768-10.231c-1.637,0.221-3.273,0.442-4.911,0.664c0.546,2.418-0.5,7.611-4.057,5.786
	c-1.353-0.694-0.718-2.642-0.338-3.743c0.471-1.369,0.81-1.923,2.237-1.946c1.52-0.025,3.047,0.214,4.568,0.239
	C440.314,279.154,440.309,274.154,437.088,274.1L437.088,274.1z"/>
<path fill="#BBBBBB" d="M449.999,292.714c1.428-4.2,2.989-8.214,3.089-12.214c-1.667,0-3.588,0-5.588,0v1c0,3,5,3,5,0
	c0,0,0-1.4,0-1.9c0-3.229-4.635-3.219-4.706,0c-0.089,4.004-1.493,7.82-2.765,11.56
	C443.988,294.221,448.967,295.748,449.999,292.714L449.999,292.714z"/>
<path fill="#BBBBBB" d="M456.088,267.6c0-1.363-1.138-2.5-2.5-2.5c-1.363,0-2.5,1.137-2.5,2.5c0,0.24-0.004,0.48-0.005,0.721
	c-0.276,0.119-0.537,0.286-0.763,0.512c-0.954,0.954-0.976,2.584,0,3.535c0.546,0.533,1.181,1.039,1.939,1.225
	c1.315,0.322,2.463-0.258,3.207-1.337c0.449-0.65,0.515-1.595,0.576-2.345C456.106,269.143,456.088,268.367,456.088,267.6z"/>
<path fill="#BBBBBB" d="M466.587,261.6c-0.387-3.157-5.392-3.195-5,0c1.323,10.811-0.799,21.758-2.911,32.334
	c-0.628,3.148,4.19,4.49,4.822,1.33C465.688,284.291,467.96,272.814,466.587,261.6z"/>
<path fill="#BBBBBB" d="M575.29,68.789c-0.517-2.119-3.562-4.055-5.767-3.828c-3.745,0.385-5.418,2.543-6.319,6.051
	c-0.896,3.491,2.491,6.171,4.274,8.635c4.386,6.06-5.29,1.931-4.891,1.263c1.662-2.773-2.662-5.285-4.316-2.523
	c-3.531,5.893,7.383,11.832,12.093,9.238c2.944-1.621,3.187-4.672,2.565-7.681c-0.385-1.866-1.436-3.306-2.622-4.741
	c-0.667-0.806-1.341-1.535-1.922-2.414c-1.114-1.686,1.935-3.279,2.082-2.67C571.231,73.25,576.053,71.921,575.29,68.789
	L575.29,68.789z"/>
<path fill="#BBBBBB" d="M588.905,78.331c0.072-0.085,0.146-0.17,0.218-0.255c-0.59,0.244-1.179,0.488-1.768,0.732
	c0.057-0.003,0.114-0.006,0.171-0.01c1.778-0.103,3.265-2.084,2.159-3.762c-3.134-4.752-7.985-0.546-10.481,2.525
	c-3.182,3.913-5.117,9.074-2.64,13.88c2.932,5.688,12.084,4.635,16.065,1.025c5.422-4.917,2.693-13.778-1.574-18.28
	c-2.222-2.344-5.752,1.197-3.535,3.535c2.705,2.854,3.981,6.652,2.165,10.347c-1.442,2.931-7.925,3.512-9.124,0.124
	c-0.727-2.053,0.372-4.475,1.503-6.161c0.58-0.864,1.252-1.65,1.95-2.419c0.427-0.47,0.897-0.892,1.376-1.308
	c0.943-0.82,0.561,0.141-0.023-0.744c0.72-1.254,1.439-2.508,2.159-3.762c-0.897,0.052-1.566,0.305-2.156,0.998
	C583.292,77.235,586.812,80.79,588.905,78.331L588.905,78.331z"/>
<path fill="#BBBBBB" d="M583.521,87.178c0.397,1.83,0.765,3.666,1.216,5.483c0.542,2.186,0.805,4.324,1.26,6.521
	c1.523-0.642,3.047-1.284,4.57-1.926c0.05,0.109,0.101,0.218,0.151,0.327c-0.582,1.025-1.164,2.05-1.746,3.076
	c0.054-0.02,0.108-0.039,0.162-0.058c3.015-1.072,1.716-5.904-1.33-4.821c-0.054,0.019-0.107,0.038-0.161,0.057
	c-1.305,0.464-2.097,1.68-1.746,3.076c0.076,0.304,0.195,0.595,0.352,0.867c1.466,2.55,5.131,0.78,4.57-1.926
	c-0.403-1.944-0.479-3.804-1.048-5.73c-0.607-2.055-0.975-4.182-1.428-6.274C587.659,82.698,582.84,84.034,583.521,87.178
	L583.521,87.178z"/>
<path fill="#BBBBBB" d="M607.83,87.442c0.15-0.197,0.301-0.395,0.451-0.593c1.728-2.265-2.066-5.142-3.926-3.029
	c-2.333,2.649-3.897,5.731-5.762,8.705c-1.5,2.395-4.535,4.16-5.127,7.135c-0.899,4.519,4.965,9.728,8.628,11.65
	c2.852,1.496,5.38-2.819,2.523-4.317c-1.619-0.849-2.589-2.22-3.849-3.487c-2.23-2.245-2.65-2.84-0.433-5.414
	c2.883-3.345,4.647-7.435,7.554-10.736c-1.309-1.01-2.617-2.02-3.926-3.029c-0.151,0.198-0.302,0.395-0.453,0.593
	C601.555,87.483,605.901,89.969,607.83,87.442L607.83,87.442z"/>
<path fill="#BBBBBB" d="M538.158,252.738c-2.837-4.993-5.765-10.324-10.245-13.473c-1.152-6.832-10.884-13.729-18.578-11.676
	c-3.112,0.83-1.79,5.653,1.33,4.82c3.303-0.881,8.347,1.357,10.803,4.254c-0.478-0.072-0.962-0.135-1.468-0.164
	c-1.355-0.08-2.509,1.197-2.5,2.5c0.018,2.669,0.348,5.098,1.089,7.664c0.478,1.649,2.217,2.186,3.673,1.494
	c2.122-1.007,3.574-2.229,4.5-3.566c1.578,1.488,2.891,3.369,4.065,5.318c-0.482,0.857-0.499,1.953,0.405,2.857l3,3
	C536.258,257.793,539.562,255.208,538.158,252.738z"/>
<path fill="#BBBBBB" d="M536.842,286.738c-1.608,2.471-5.148,3.649-8.22,4.365c-2.476-7.139-4.377-14.437-6.211-21.768
	c-0.782-3.127-5.604-1.801-4.822,1.328c2.026,8.098,4.127,16.154,7,24c0.495,1.352,1.651,2.029,3.076,1.746
	c4.806-0.955,10.665-2.803,13.493-7.148C542.923,286.551,538.593,284.047,536.842,286.738z"/>
<path fill="#BBBBBB" d="M557.137,274.123c-1.744-2.466-4.671-3.688-7.472-4.533c-1.305-0.395-2.722,0.457-3.076,1.746
	c-0.083,0.3-0.098,0.6-0.069,0.889c-0.796,1.199-1.535,2.441-2.099,3.768c-0.56,1.315-1.019,2.623-1.05,4.074
	c-0.05,2.294,1.423,4.395,3.713,4.881c2.062,0.438,4.111-0.107,5.976-0.994c1.693-0.806,3.312-2.135,4.242-3.782
	C558.36,278.295,558.406,275.919,557.137,274.123z M550.449,279.677c-0.004,0.002-0.008,0.003-0.012,0.005
	c-0.174,0.067-0.35,0.129-0.526,0.186c-0.321,0.102-0.65,0.176-0.981,0.234c-0.168,0.013-0.338,0.016-0.507,0.012
	c-0.014-0.001-0.025-0.002-0.038-0.002c-0.004-0.001-0.008-0.002-0.012-0.003c0-0.015-0.002-0.028-0.002-0.042
	c0.001-0.09,0.011-0.178,0.018-0.267c0.006-0.033,0.012-0.066,0.019-0.1c0.083-0.396,0.204-0.784,0.341-1.165
	c0.026-0.072,0.074-0.194,0.119-0.307c0.079-0.177,0.157-0.354,0.242-0.527c0.42-0.863,0.917-1.684,1.437-2.491
	c0.462,0.215,0.916,0.446,1.349,0.716c0.135,0.083,0.262,0.178,0.392,0.27c0.124,0.104,0.298,0.248,0.383,0.33
	c0.082,0.08,0.153,0.169,0.229,0.254c0.061,0.086-0.181,0.18-0.142,0.25c0.021,0.064-0.256,0.131-0.256,0.195
	c0,0.021,0,0.041,0,0.061c0,0.094,0.256,0.188,0.225,0.279c-0.001,0.003,0.149,0.007,0.147,0.01
	c-0.077,0.146-0.089,0.287-0.182,0.425c-0.239,0.28-0.467,0.538-0.747,0.776c-0.008,0.007,0.002,0.014-0.006,0.02
	c-0.15,0.108-0.293,0.213-0.449,0.311C551.151,279.318,550.81,279.508,550.449,279.677z"/>
<path fill="#BBBBBB" d="M584.44,282.689c-0.411-7.59-5.65-16.055-12.179-19.848c-0.79-0.459-1.572-0.427-2.225-0.109
	c-0.783-1.242-2.519-1.887-3.805-0.5c-2.765,2.979-5.517,8.902-0.836,11.633c3.678,2.145,5.938-1.195,7.12-4.613
	c3.002,2.78,5.077,6.647,6.287,10.468c0.5,1.575,0.941,3.408,0.489,5.042c-0.029-0.026-0.12-0.06-0.366-0.112
	c-1.509-0.323-2.978-1.501-4.159-2.417c-2.515-1.949-6.081,1.562-3.535,3.535c2.653,2.057,6.16,4.793,9.76,3.69
	C583.877,288.574,584.584,285.324,584.44,282.689z"/>
<path fill="#BBBBBB" d="M590.691,259.23c-1.815-1.025-3.829-1.643-5.629-2.709c-1.918-1.139-0.86-2.133,0.705-3.754
	c2.239-2.318-1.292-5.858-3.535-3.535c-3.969,4.11-4.434,8.979,0.934,11.967c1.764,0.98,3.714,1.58,5.449,2.615
	c-0.734,0.865-2.031,1.508-2.877,2.027c-2.741,1.684-0.231,6.01,2.523,4.316C592.539,267.531,596.762,262.658,590.691,259.23z"/>
</svg>
